<svg width="32" height="32" viewBox="0 0 32 32" fill="none" xmlns="http://www.w3.org/2000/svg">
<rect x="4" y="4" width="24" height="24" rx="5" fill="url(#paint0_linear_112_960)"/>
<path d="M9 19.174V24C11.2399 24 11.7999 23.1422 11.7999 21.9137V17C9.56001 17 9 17.8578 9 19.174Z" fill="white"/>
<path d="M9 19.174V24C11.2399 24 11.7999 23.1422 11.7999 21.9137V17C9.56001 17 9 17.8578 9 19.174Z" fill="url(#paint1_linear_112_960)"/>
<path d="M20.1997 12.0553V24C22.7203 24 23 23.1917 23 21.9605L23 10C20.4793 10 20.1997 10.7361 20.1997 12.0553Z" fill="white"/>
<path d="M20.1997 12.0553V24C22.7203 24 23 23.1917 23 21.9605L23 10C20.4793 10 20.1997 10.7361 20.1997 12.0553Z" fill="url(#paint2_linear_112_960)"/>
<path d="M14.5932 15.6453V24C16.8385 24 17.3998 23.2109 17.3998 21.9796V13.5369C15.1545 13.5369 14.5932 14.3261 14.5932 15.6453Z" fill="white"/>
<path d="M14.5932 15.6453V24C16.8385 24 17.3998 23.2109 17.3998 21.9796V13.5369C15.1545 13.5369 14.5932 14.3261 14.5932 15.6453Z" fill="url(#paint3_linear_112_960)"/>
<defs>
<linearGradient id="paint0_linear_112_960" x1="16" y1="4" x2="16" y2="28" gradientUnits="userSpaceOnUse">
<stop stop-color="#428BF9"/>
<stop offset="1" stop-color="#8AAFE7"/>
</linearGradient>
<linearGradient id="paint1_linear_112_960" x1="17.6237" y1="10" x2="44.0298" y2="32.3072" gradientUnits="userSpaceOnUse">
<stop stop-color="white"/>
<stop offset="1" stop-color="#428BF9"/>
</linearGradient>
<linearGradient id="paint2_linear_112_960" x1="17.6237" y1="10" x2="44.0298" y2="32.3072" gradientUnits="userSpaceOnUse">
<stop stop-color="white"/>
<stop offset="1" stop-color="#428BF9"/>
</linearGradient>
<linearGradient id="paint3_linear_112_960" x1="17.6237" y1="10" x2="44.0298" y2="32.3072" gradientUnits="userSpaceOnUse">
<stop stop-color="white"/>
<stop offset="1" stop-color="#428BF9"/>
</linearGradient>
</defs>
</svg>
